# xmcd
#
# Track frame offsets:
#	150
#	16835
#	33400
#	45217
#	53257
#	68827
#	79182
#	97675
#	112670
#	131947
#	144300
#	158780
#	173910
#
# Disc length: 2480 seconds
#
# Revision: 0
# Processed by: cddbd v1.4b42PL1 Copyright (c) Steve Scherf et al.
# Submitted via: dBpowerAMP V4.0
#
DISCID=9009ae0d
DTITLE=Bob Brozman - Blue Hula Stomp
DYEAR=1900
DGENRE=Blues
TTITLE0=C Stomp Blues
TTITLE1=Body and Soul
TTITLE2=Hilo March
TTITLE3=Ukulele Spaghetti
TTITLE4=Do You Call That a Buddy?
TTITLE5=Chili Blues
TTITLE6=Paauau Waltz
TTITLE7=Short Man's Vindication
TTITLE8=Wasting My Love On You
TTITLE9=Hano Hano Hanalei
TTITLE10=Blue Hula Stomp, medley
TTITLE11=Hilo Hula
TTITLE12=Agogostein's Lament
EXTD=
EXTT0=
EXTT1=
EXTT2=
EXTT3=
EXTT4=
EXTT5=
EXTT6=
EXTT7=
EXTT8=
EXTT9=
EXTT10=
EXTT11=
EXTT12=
PLAYORDER=
